<svg preserveAspectRatio="none" width="100%" height="100%" overflow="visible" style="display: block;" viewBox="0 0 16.8575 16.868" fill="none" xmlns="http://www.w3.org/2000/svg">
<g id="Group">
<g id="Group_2">
<path id="Vector" d="M0.428574 10.2775H2.89333C3.71045 10.2775 4.4941 10.6021 5.07189 11.1799C5.64968 11.7577 5.97428 12.5413 5.97428 13.3584" stroke="var(--stroke-0, #3A3525)" stroke-width="0.857148" stroke-linecap="round" stroke-linejoin="round"/>
<path id="Vector_2" d="M2.27714 13.3585H8.43904C9.09274 13.3585 9.71966 13.6181 10.1819 14.0804C10.6441 14.5426 10.9038 15.1695 10.9038 15.8232C10.9038 15.9867 10.8389 16.1434 10.7233 16.2589C10.6078 16.3745 10.451 16.4394 10.2876 16.4394H0.428574" stroke="var(--stroke-0, #3A3525)" stroke-width="0.857148" stroke-linecap="round" stroke-linejoin="round"/>
</g>
<path id="Vector_3" d="M10.5952 10.278L5.66571 5.71821C2.97912 3.0193 6.89809 -2.20599 10.5952 2.02107C14.2924 -2.19367 18.2483 3.03162 15.5247 5.71821L10.5952 10.278Z" stroke="var(--stroke-0, #3A3525)" stroke-width="0.857148" stroke-linecap="round" stroke-linejoin="round"/>
</g>
</svg>
