<svg preserveAspectRatio="none" width="100%" height="100%" overflow="visible" style="display: block;" viewBox="0 0 13.3789 13.3526" fill="none" xmlns="http://www.w3.org/2000/svg">
<g id="Group">
<path id="Vector" d="M9.95775 3.31832C9.8372 2.52776 9.43738 1.80656 8.83078 1.28545C8.22418 0.764344 7.45094 0.477819 6.65124 0.477819C5.85154 0.477819 5.07831 0.764344 4.47171 1.28545C3.86511 1.80656 3.46529 2.52776 3.34473 3.31832C2.58438 3.31832 1.85517 3.62037 1.31752 4.15802C0.779868 4.69568 0.477819 5.42489 0.477819 6.18524C0.477819 6.94559 0.779868 7.6748 1.31752 8.21245C1.85517 8.75011 2.58438 9.05215 3.34473 9.05215C3.70189 9.0557 4.05611 8.98746 4.38638 8.85147C4.65304 9.21118 5.00026 9.50343 5.4002 9.7048C5.80014 9.90617 6.24169 10.0111 6.68947 10.0111C7.13724 10.0111 7.5788 9.90617 7.97874 9.7048C8.37868 9.50343 8.72589 9.21118 8.99256 8.85147C9.32283 8.98746 9.67705 9.0557 10.0342 9.05215C10.7946 9.05215 11.5238 8.75011 12.0614 8.21245C12.5991 7.6748 12.9011 6.94559 12.9011 6.18524C12.9011 5.42489 12.5991 4.69568 12.0614 4.15802C11.5238 3.62037 10.7946 3.31832 10.0342 3.31832H9.95775Z" stroke="var(--stroke-0, #3A3525)" stroke-width="0.955638" stroke-linecap="round" stroke-linejoin="round"/>
<path id="Vector_2" d="M5.17957 6.18534L6.61303 7.6188V12.8748" stroke="var(--stroke-0, #3A3525)" stroke-width="0.955638" stroke-linecap="round" stroke-linejoin="round"/>
<path id="Vector_3" d="M6.61303 7.6188L8.04649 6.18534" stroke="var(--stroke-0, #3A3525)" stroke-width="0.955638" stroke-linecap="round" stroke-linejoin="round"/>
</g>
</svg>
