<svg preserveAspectRatio="none" width="100%" height="100%" overflow="visible" style="display: block;" viewBox="0 0 22 22" fill="none" xmlns="http://www.w3.org/2000/svg">
<g id="ri:more-line">
<path id="Vector" d="M4.125 9.625C3.36875 9.625 2.75 10.2438 2.75 11C2.75 11.7563 3.36875 12.375 4.125 12.375C4.88125 12.375 5.5 11.7563 5.5 11C5.5 10.2438 4.88125 9.625 4.125 9.625ZM17.875 9.625C17.1188 9.625 16.5 10.2438 16.5 11C16.5 11.7563 17.1188 12.375 17.875 12.375C18.6313 12.375 19.25 11.7563 19.25 11C19.25 10.2438 18.6313 9.625 17.875 9.625ZM11 9.625C10.2438 9.625 9.625 10.2438 9.625 11C9.625 11.7563 10.2438 12.375 11 12.375C11.7563 12.375 12.375 11.7563 12.375 11C12.375 10.2438 11.7563 9.625 11 9.625Z" fill="var(--fill-0, black)"/>
</g>
</svg>
