<svg preserveAspectRatio="none" width="100%" height="100%" overflow="visible" style="display: block;" viewBox="0 0 12.8001 12.8" fill="none" xmlns="http://www.w3.org/2000/svg">
<g id="Group 21">
<path id="Vector" d="M12.2975 2.70299C12.2483 2.63551 12.181 2.58369 12.1036 2.55366L6.56565 0.435062C6.51325 0.411937 6.45669 0.4 6.39951 0.4C6.34234 0.4 6.28578 0.411937 6.23337 0.435062L0.695392 2.59099C0.622226 2.61059 0.555404 2.6492 0.501563 2.70299C0.43709 2.78185 0.40126 2.88066 0.400033 2.98298V9.81475C0.40123 9.90796 0.430004 9.99866 0.482646 10.0752C0.535288 10.1517 0.609387 10.2105 0.695392 10.2441L6.23337 12.4H6.39951H6.56565L12.1036 10.2441C12.1896 10.2105 12.2637 10.1517 12.3164 10.0752C12.369 9.99866 12.3978 9.90796 12.399 9.81475V3.02031C12.4068 2.90526 12.3704 2.79161 12.2975 2.70299V2.70299Z" stroke="var(--stroke-0, #3A3525)" stroke-width="0.8" stroke-linecap="round" stroke-linejoin="round"/>
<g id="Group">
<path id="Vector_2" d="M6.00004 12.3219V5.59998" stroke="var(--stroke-0, #3A3525)" stroke-width="0.8" stroke-linecap="round" stroke-linejoin="round"/>
<path id="Vector_3" d="M0.800037 2.8L6.00004 5.2L12.4 2.8" stroke="var(--stroke-0, #3A3525)" stroke-width="0.8" stroke-linecap="round" stroke-linejoin="round"/>
</g>
</g>
</svg>
