<svg preserveAspectRatio="none" width="100%" height="100%" overflow="visible" style="display: block;" viewBox="0 0 15.1221 29.9511" fill="none" xmlns="http://www.w3.org/2000/svg">
<path id="Vector" d="M12.8714 1.08935C12.8714 3.0342 12.9084 4.97906 12.8862 6.91649C12.8788 7.6588 12.8566 8.11904 12.108 8.35658C11.5744 8.52731 11.0111 8.57928 10.4775 8.74258C7.55734 9.65563 7.24605 12.714 7.62404 15.3195C7.83897 16.8115 8.1799 18.4372 7.18676 19.7288C6.34185 20.8274 5.01519 21.4881 3.87381 22.2155C1.64295 23.6259 -0.891786 26.2612 0.308879 29.1339C0.546047 29.6906 1.04261 30.0766 1.68 29.9133C2.20622 29.7723 2.68797 29.0968 2.45821 28.54C1.27237 25.7044 5.51175 23.96 7.23863 22.6758C8.29848 21.8889 9.23234 20.9536 9.72149 19.7065C10.307 18.1922 10.0476 16.6111 9.81785 15.0448C9.65479 13.9313 9.43244 12.3651 10.2255 11.4075C10.937 10.5464 12.4341 10.6949 13.3976 10.2272C14.7465 9.5814 15.1023 8.2972 15.1171 6.90165C15.1319 4.95679 15.1097 3.01935 15.1022 1.0745C15.1022 -0.358166 12.8788 -0.358166 12.8788 1.0745L12.8714 1.08935Z" fill="var(--fill-0, #333333)"/>
</svg>
