<svg preserveAspectRatio="none" width="100%" height="100%" overflow="visible" style="display: block;" viewBox="0 0 9.14432 31.8813" fill="none" xmlns="http://www.w3.org/2000/svg">
<path id="Vector" d="M6.24904 1.06337C6.44915 2.8078 6.64926 4.54481 6.84196 6.28925C6.91608 6.94991 7.1236 7.7516 6.69374 8.32318C6.30093 8.8428 5.61165 9.16199 5.12991 9.58511C3.1955 11.2702 2.77304 13.9648 3.03985 16.3995C3.18808 17.7802 3.5809 19.0644 3.89959 20.408C4.07006 21.1281 4.06265 21.6477 3.54384 22.197C3.12139 22.6424 2.59517 22.9913 2.1653 23.4292C0.201252 25.4186 -0.480612 28.4473 0.342065 31.1047C0.764521 32.4706 2.91386 31.8842 2.48399 30.5109C2.05412 29.1376 2.12083 27.8311 2.6767 26.5692C3.23256 25.3073 4.21829 24.6912 5.11508 23.7707C7.28665 21.5438 5.47824 18.7452 5.24107 16.1323C5.13731 14.9817 5.15214 13.7495 5.60424 12.6583C6.12305 11.4112 7.18289 10.951 8.10192 10.075C9.19882 9.02096 9.23589 7.70706 9.07283 6.28925C8.88014 4.54481 8.67261 2.8078 8.47991 1.06337C8.31686 -0.347024 6.09341 -0.36187 6.25646 1.06337H6.24904Z" fill="var(--fill-0, #333333)"/>
</svg>
