<svg preserveAspectRatio="none" width="100%" height="100%" overflow="visible" style="display: block;" viewBox="0 0 9.14005 31.8785" fill="none" xmlns="http://www.w3.org/2000/svg">
<path id="Vector" d="M0.660144 1.06058C0.460034 2.80501 0.259923 4.54203 0.0672235 6.28646C-0.0884183 7.70428 -0.0513611 9.02559 1.03813 10.0723C1.94975 10.9556 3.017 11.4158 3.53581 12.6555C3.98791 13.7393 4.00273 14.9715 3.89897 16.1295C3.66181 18.7276 1.83857 21.5484 4.02497 23.7679C4.92917 24.6884 5.92232 25.3416 6.46336 26.5664C7.0044 27.7912 7.06369 29.2016 6.65606 30.5081C6.22619 31.8814 8.37553 32.4678 8.79798 31.102C9.62066 28.4519 8.9388 25.4158 6.97475 23.4265C6.53747 22.9885 6.01867 22.647 5.59621 22.1942C5.06999 21.6449 5.06999 21.1104 5.24046 20.4052C5.55915 19.0617 5.95196 17.7775 6.10019 16.3968C6.3596 13.9694 5.93714 11.2674 4.01015 9.58233C3.52099 9.15921 2.83913 8.84001 2.44632 8.32039C2.01645 7.74881 2.22397 6.93969 2.29809 6.28646C2.49079 4.54203 2.69831 2.80501 2.89101 1.06058C3.05406 -0.357236 0.830609 -0.349813 0.667555 1.06058H0.660144Z" fill="var(--fill-0, #333333)"/>
</svg>
