<svg preserveAspectRatio="none" width="100%" height="100%" overflow="visible" style="display: block;" viewBox="0 0 15.1242 29.9438" fill="none" xmlns="http://www.w3.org/2000/svg">
<path id="Vector" d="M0.0219275 1.05965C0.0219275 3.00451 -0.01513 4.94937 0.00710452 6.8868C0.0219275 8.28977 0.37768 9.56655 1.72657 10.2124C2.69748 10.6726 4.17978 10.5241 4.8987 11.3926C5.69173 12.3502 5.46939 13.9091 5.30633 15.03C5.07658 16.5888 4.81717 18.17 5.40268 19.6917C5.88443 20.9462 6.82569 21.8815 7.88554 22.6609C9.61983 23.9451 13.8592 25.6821 12.666 28.5252C12.4288 29.0819 12.918 29.7426 13.4442 29.8985C14.0816 30.0841 14.5781 29.6758 14.8153 29.1191C16.016 26.2463 13.4812 23.6111 11.2504 22.2007C10.109 21.4732 8.78233 20.8126 7.93742 19.714C6.94428 18.4223 7.28521 16.7892 7.50014 15.3046C7.87813 12.6991 7.56684 9.64078 4.64671 8.72774C4.11308 8.56443 3.54981 8.50504 3.01618 8.34173C2.26762 8.10419 2.24538 7.64396 2.23797 6.90165C2.21573 4.95679 2.24538 3.01193 2.25279 1.0745C2.25279 -0.358166 0.0293391 -0.358166 0.0293391 1.0745H0.0219275V1.05965Z" fill="var(--fill-0, #333333)"/>
</svg>
