<svg preserveAspectRatio="none" width="100%" height="100%" overflow="visible" style="display: block;" viewBox="0 0 84.0422 145" fill="none" xmlns="http://www.w3.org/2000/svg">
<g id="Group">
<path id="Vector" d="M77.3183 45.8609C72.234 44.161 66.8013 51.9775 65.4302 54.0337L58.834 66.5714L59.4936 17.126C59.5158 15.0995 58.7228 13.2511 57.448 11.9075C56.1584 10.5714 54.3796 9.72512 52.4082 9.71027C48.5394 9.67316 45.3672 12.7983 45.1968 16.74L45.3005 9.04219C45.3524 5.08567 42.1951 1.83434 38.2448 1.78238C34.2944 1.73042 31.0482 4.89267 30.9963 8.84919L30.9222 14.513C30.9741 10.5565 27.8168 7.30518 23.8665 7.25322C19.9161 7.20126 16.8033 10.408 16.7514 14.3646L16.4624 35.9213C16.2622 32.1949 13.2532 29.2108 9.52518 29.1663C5.63413 29.1143 2.55836 32.3285 2.50648 36.2776L2.11367 65.8068L1.75791 93.1239C1.72086 96.7686 2.28413 100.168 3.03269 103.063C5.12274 111.162 6.2567 116.729 6.51611 124.13C6.61987 126.862 6.48646 129.623 6.15294 132.34L6.13812 132.414C5.85648 134.782 7.04232 137.128 9.28801 138.412C12.9345 140.528 19.7012 143.119 30.9593 143.23C42.8844 143.349 49.3695 140.32 52.549 138.034C54.2166 136.846 55.1949 135.042 55.2097 133.135V133.097C55.8249 128.599 56.3363 119.142 63.0733 112.246C70.2329 104.63 69.5658 84.6987 71.1741 78.7527L81.4391 55.9192C82.9436 52.4378 82.7954 47.687 77.3109 45.8535L77.3183 45.8609Z" fill="var(--fill-0, #E2C3AF)"/>
<path id="Vector_2" d="M61.2649 17.1408L60.7017 59.2076L63.859 53.2023C63.8886 53.1504 63.9183 53.0984 63.9553 53.0464C66.705 48.9118 72.1895 42.2606 77.8815 44.1758C81.1945 45.2818 82.6842 47.2861 83.3438 48.7707C84.3592 51.0422 84.2629 53.9075 83.0844 56.6318L72.8714 79.354C72.4711 80.9351 72.2043 83.6891 71.9004 86.8662C71.0629 95.6106 69.9142 107.592 64.3852 113.463C58.7005 119.283 57.7445 127.159 57.1738 131.858C57.1145 132.348 57.0552 132.808 57.0033 133.224C56.944 135.71 55.7063 137.967 53.594 139.466C50.0068 142.05 43.1586 145.115 30.9593 144.997C30.8629 144.997 30.7666 144.997 30.6776 144.997C19.2268 144.841 12.26 142.168 8.42087 139.949C5.6119 138.338 4.02584 135.295 4.40383 132.199C4.40383 132.169 4.42606 132.066 4.42606 132.036C4.74475 129.43 4.86334 126.765 4.76699 124.197C4.515 116.989 3.41068 111.57 1.33546 103.501C0.416434 99.968 -0.0282564 96.4717 0.00138966 93.1016L0.749951 36.2479C0.816655 31.2967 4.7744 27.3179 9.56965 27.3773C11.5337 27.407 13.3421 28.0825 14.7948 29.2108L14.9949 14.3423C15.0616 9.39105 19.0638 5.41226 23.9109 5.47165C25.9787 5.50134 27.8687 6.22881 29.3658 7.43877C30.0699 3.17048 33.8127 -0.058579 38.267 0.000805975C43.1883 0.0676141 47.1386 4.12806 47.0719 9.05701V9.68056C48.5616 8.55967 50.4145 7.90643 52.423 7.9287C54.765 7.94355 57.0404 8.9234 58.7228 10.6678C58.7228 10.6678 61.3168 12.9764 61.2649 17.1408ZM9.50295 30.9404C6.61246 30.9033 4.3223 33.2564 4.27783 36.2999L3.52927 93.1461C3.49962 96.197 3.90726 99.389 4.75217 102.618C6.89409 110.939 8.03547 116.536 8.29487 124.071C8.39863 126.825 8.27264 129.683 7.91688 132.563C7.91688 132.593 7.89465 132.689 7.89465 132.719C7.70195 134.33 8.5691 135.955 10.1774 136.868C13.6608 138.887 20.0347 141.3 30.7147 141.448C30.8036 141.448 30.8926 141.448 30.9889 141.448C42.8251 141.56 48.9396 138.449 51.5262 136.586C52.7417 135.725 53.4384 134.463 53.4458 133.12C53.4458 133.045 53.4458 132.934 53.4606 132.86C53.5199 132.429 53.5792 131.954 53.6385 131.435C54.2611 126.283 55.3135 117.657 61.8134 111.006C66.4826 106.04 67.5647 94.7644 68.3577 86.5321C68.6987 82.9616 68.9729 80.1483 69.4695 78.2999C69.4917 78.2108 69.5288 78.1217 69.5658 78.0327L79.8308 55.1991C80.609 53.4027 80.7053 51.5841 80.0976 50.2182C79.5565 49.0083 78.43 48.1101 76.755 47.5459C73.8274 46.5661 69.7882 50.7082 66.9496 54.9393L54.4167 78.7972C54.1573 79.2872 53.683 79.6286 53.1345 79.7251C52.4378 79.8513 35.9176 83.073 35.547 110.687C35.5322 111.667 34.7317 112.454 33.746 112.439C32.7677 112.424 31.9821 111.622 31.9969 110.635C32.36 83.3105 47.687 77.4759 51.6448 76.4218L57.0404 66.1408L57.6926 17.0963C57.7074 15.6116 57.1515 14.2012 56.1362 13.1175C55.1356 12.0782 53.8015 11.4918 52.3859 11.4695H52.3711C49.4658 11.4398 47.0941 13.7707 46.9533 16.7696L46.2937 66.3858C46.2789 67.3656 45.4784 68.1525 44.4927 68.1376C43.5144 68.1228 42.7287 67.3211 42.7436 66.3338L43.507 8.99021C43.544 6.02096 41.1649 3.57133 38.2003 3.53421C35.2357 3.4971 32.7899 5.87992 32.7529 8.84917L31.9895 66.1928C31.9746 67.1726 31.1742 67.9595 30.1885 67.9446C29.2102 67.9298 28.4245 67.1281 28.4394 66.1408L29.1286 14.4685C29.1657 11.4992 26.7866 9.04959 23.822 9.01248C20.8796 8.97536 18.545 11.3285 18.5005 14.372L18.2115 35.758C18.2263 35.9807 18.2263 36.2034 18.2263 36.4261L17.8335 66.0072C17.8187 66.9871 17.0182 67.7739 16.0399 67.7591C15.0616 67.7442 14.276 66.9425 14.2908 65.9627L14.6688 35.8619C14.4464 33.1302 12.2156 30.9626 9.48071 30.9255L9.50295 30.9404Z" fill="var(--fill-0, #333333)"/>
</g>
</svg>
