<svg preserveAspectRatio="none" width="100%" height="100%" overflow="visible" style="display: block;" viewBox="0 0 12.8496 12.8572" fill="none" xmlns="http://www.w3.org/2000/svg">
<g id="Group">
<g id="Group_2">
<path id="Vector" d="M0.428574 7.8103H2.27591C2.88834 7.8103 3.47568 8.05359 3.90873 8.48664C4.34179 8.9197 4.58507 9.50704 4.58507 10.1195" stroke="var(--stroke-0, #3A3525)" stroke-width="0.857148" stroke-linecap="round" stroke-linejoin="round"/>
<path id="Vector_2" d="M1.81408 10.1195H6.43241C6.92235 10.1195 7.39223 10.3141 7.73867 10.6606C8.08511 11.007 8.27974 11.4769 8.27974 11.9668C8.27974 12.0893 8.23109 12.2068 8.14448 12.2934C8.05786 12.38 7.9404 12.4287 7.81791 12.4287H0.428575" stroke="var(--stroke-0, #3A3525)" stroke-width="0.857148" stroke-linecap="round" stroke-linejoin="round"/>
</g>
<path id="Vector_3" d="M8.04857 7.81072L4.3539 4.39316C2.34031 2.37033 5.27757 -1.54602 8.04857 1.62216C10.8196 -1.53679 13.7845 2.37956 11.7432 4.39316L8.04857 7.81072Z" stroke="var(--stroke-0, #3A3525)" stroke-width="0.857148" stroke-linecap="round" stroke-linejoin="round"/>
</g>
</svg>
