<svg preserveAspectRatio="none" width="100%" height="100%" overflow="visible" style="display: block;" viewBox="0 0 24 24" fill="none" xmlns="http://www.w3.org/2000/svg">
<g id="ph:hand-pointing">
<path id="Vector" d="M18.375 8.25C17.9378 8.24952 17.5074 8.35879 17.1234 8.56781C17.0086 8.21228 16.8192 7.88536 16.5679 7.6089C16.3166 7.33244 16.0092 7.11281 15.6661 6.96469C15.3231 6.81657 14.9525 6.74338 14.5789 6.75001C14.2054 6.75664 13.8375 6.84293 13.5 7.00312V4.125C13.5 3.42881 13.2234 2.76113 12.7312 2.26884C12.2389 1.77656 11.5712 1.5 10.875 1.5C10.1788 1.5 9.51113 1.77656 9.01884 2.26884C8.52656 2.76113 8.25 3.42881 8.25 4.125V11.625L7.89188 11.0503C7.71871 10.7521 7.48851 10.4909 7.21439 10.2816C6.94028 10.0723 6.62763 9.91906 6.2943 9.83061C5.6211 9.65199 4.90452 9.7481 4.30219 10.0978C3.69986 10.4475 3.26112 11.0222 3.08249 11.6954C2.90386 12.3686 2.99997 13.0852 3.34969 13.6875L3.7875 14.4591C7.01344 20.1459 8.34844 22.5 12.75 22.5C14.9373 22.4975 17.0343 21.6275 18.5809 20.0809C20.1275 18.5343 20.9975 16.4373 21 14.25V10.875C21 10.1788 20.7234 9.51113 20.2312 9.01884C19.7389 8.52656 19.0712 8.25 18.375 8.25ZM19.5 14.25C19.498 16.0396 18.7862 17.7553 17.5208 19.0208C16.2553 20.2862 14.5396 20.998 12.75 21C9.22219 21 8.265 19.3125 5.0925 13.7175L4.65281 12.9422V12.9375C4.50352 12.6794 4.46282 12.3725 4.53964 12.0844C4.61646 11.7963 4.80452 11.5505 5.0625 11.4009C5.23342 11.302 5.42753 11.2503 5.625 11.2509C5.82276 11.2506 6.0171 11.3025 6.18844 11.4012C6.35978 11.5 6.50206 11.6422 6.60094 11.8134C6.60482 11.8209 6.60921 11.8281 6.61406 11.835L8.36438 14.6475C8.45076 14.7854 8.57966 14.8915 8.73163 14.9497C8.88359 15.008 9.05038 15.0152 9.20681 14.9703C9.36325 14.9254 9.50084 14.8309 9.59882 14.701C9.69681 14.571 9.74987 14.4127 9.75 14.25V4.125C9.75 3.82663 9.86853 3.54048 10.0795 3.3295C10.2905 3.11853 10.5766 3 10.875 3C11.1734 3 11.4595 3.11853 11.6705 3.3295C11.8815 3.54048 12 3.82663 12 4.125V10.5C12 10.6989 12.079 10.8897 12.2197 11.0303C12.3603 11.171 12.5511 11.25 12.75 11.25C12.9489 11.25 13.1397 11.171 13.2803 11.0303C13.421 10.8897 13.5 10.6989 13.5 10.5V9.375C13.5 9.07663 13.6185 8.79048 13.8295 8.5795C14.0405 8.36853 14.3266 8.25 14.625 8.25C14.9234 8.25 15.2095 8.36853 15.4205 8.5795C15.6315 8.79048 15.75 9.07663 15.75 9.375V11.25C15.75 11.4489 15.829 11.6397 15.9697 11.7803C16.1103 11.921 16.3011 12 16.5 12C16.6989 12 16.8897 11.921 17.0303 11.7803C17.171 11.6397 17.25 11.4489 17.25 11.25V10.875C17.25 10.5766 17.3685 10.2905 17.5795 10.0795C17.7905 9.86853 18.0766 9.75 18.375 9.75C18.6734 9.75 18.9595 9.86853 19.1705 10.0795C19.3815 10.2905 19.5 10.5766 19.5 10.875V14.25Z" fill="var(--fill-0, #564F37)"/>
</g>
</svg>
