<svg preserveAspectRatio="none" width="100%" height="100%" overflow="visible" style="display: block;" viewBox="0 0 25.6001 25.6" fill="none" xmlns="http://www.w3.org/2000/svg">
<g id="Group 21">
<path id="Vector" d="M24.5949 5.40597C24.4966 5.27102 24.3621 5.16737 24.2073 5.10732L13.1313 0.870125C13.0265 0.823873 12.9134 0.8 12.799 0.8C12.6847 0.8 12.5716 0.823873 12.4667 0.870125L1.39078 5.18198C1.24445 5.22117 1.11081 5.29839 1.00313 5.40597C0.874179 5.56371 0.80252 5.76132 0.800066 5.96596V19.6295C0.80246 19.8159 0.860007 19.9973 0.965292 20.1504C1.07058 20.3034 1.21877 20.421 1.39078 20.4881L12.4667 24.8H12.799H13.1313L24.2073 20.4881C24.3793 20.421 24.5275 20.3034 24.6328 20.1504C24.738 19.9973 24.7956 19.8159 24.798 19.6295V6.04062C24.8136 5.81053 24.7409 5.58321 24.5949 5.40597V5.40597Z" stroke="var(--stroke-0, #FAF7F0)" stroke-width="1.6" stroke-linecap="round" stroke-linejoin="round"/>
<g id="Group">
<path id="Vector_2" d="M12.0003 24.6438V11.1999" stroke="var(--stroke-0, #FAF7F0)" stroke-width="1.6" stroke-linecap="round" stroke-linejoin="round"/>
<path id="Vector_3" d="M1.59988 5.60005L11.9999 10.4L24.7999 5.60005" stroke="var(--stroke-0, #FAF7F0)" stroke-width="1.6" stroke-linecap="round" stroke-linejoin="round"/>
</g>
</g>
</svg>
