<svg preserveAspectRatio="none" width="100%" height="100%" overflow="visible" style="display: block;" viewBox="0 0 25.4842 25.5001" fill="none" xmlns="http://www.w3.org/2000/svg">
<g id="Group 28">
<g id="Group">
<path id="Vector" d="M0.75 15.5134H4.44461C5.66944 15.5134 6.84411 16 7.71021 16.8661C8.5763 17.7322 9.06286 18.9069 9.06286 20.1318" stroke="var(--stroke-0, #FAF7F0)" stroke-width="1.5" stroke-linecap="round" stroke-linejoin="round"/>
<path id="Vector_2" d="M3.52095 20.1318H12.7575C13.7373 20.1318 14.6771 20.521 15.3699 21.2139C16.0628 21.9068 16.4521 22.8465 16.4521 23.8264C16.4521 24.0714 16.3548 24.3063 16.1815 24.4796C16.0083 24.6528 15.7734 24.7501 15.5284 24.7501H0.75" stroke="var(--stroke-0, #FAF7F0)" stroke-width="1.5" stroke-linecap="round" stroke-linejoin="round"/>
</g>
<path id="Vector_3" d="M15.9896 15.5143L8.60038 8.67916C4.57326 4.6335 10.4477 -3.1992 15.9896 3.13716C21.5315 -3.18073 27.4613 4.65197 23.3788 8.67916L15.9896 15.5143Z" stroke="var(--stroke-0, #FAF7F0)" stroke-width="1.5" stroke-linecap="round" stroke-linejoin="round"/>
</g>
</svg>
