<svg preserveAspectRatio="none" width="100%" height="100%" overflow="visible" style="display: block;" viewBox="0 0 16 18" fill="none" xmlns="http://www.w3.org/2000/svg">
<g id="Hand" clip-path="url(#clip0_8_1812)">
<path id="Vector" d="M12 8.25V4.5C12 4.10218 11.8595 3.72064 11.6095 3.43934C11.3594 3.15804 11.0203 3 10.6667 3C10.313 3 9.97391 3.15804 9.72386 3.43934C9.47381 3.72064 9.33333 4.10218 9.33333 4.5" stroke="var(--stroke-0, #2A2620)" stroke-width="1.16667" stroke-linecap="round" stroke-linejoin="round"/>
<path id="Vector_2" d="M9.33333 7.5V3C9.33333 2.60218 9.19286 2.22064 8.94281 1.93934C8.69276 1.65804 8.35362 1.5 8 1.5C7.64638 1.5 7.30724 1.65804 7.05719 1.93934C6.80714 2.22064 6.66667 2.60218 6.66667 3V4.5" stroke="var(--stroke-0, #2A2620)" stroke-width="1.16667" stroke-linecap="round" stroke-linejoin="round"/>
<path id="Vector_3" d="M6.66667 7.875V4.5C6.66667 4.10218 6.52619 3.72064 6.27614 3.43934C6.02609 3.15804 5.68696 3 5.33333 3C4.97971 3 4.64057 3.15804 4.39052 3.43934C4.14048 3.72064 4 4.10218 4 4.5V10.5" stroke="var(--stroke-0, #2A2620)" stroke-width="1.16667" stroke-linecap="round" stroke-linejoin="round"/>
<path id="Vector_4" d="M12 6C12 5.60218 12.1405 5.22064 12.3905 4.93934C12.6406 4.65804 12.9797 4.5 13.3333 4.5C13.687 4.5 14.0261 4.65804 14.2761 4.93934C14.5262 5.22064 14.6667 5.60218 14.6667 6V10.5C14.6667 12.0913 14.1048 13.6174 13.1046 14.7426C12.1044 15.8679 10.7478 16.5 9.33333 16.5H8C6.13333 16.5 5 15.855 4.00667 14.745L1.60667 12.045C1.37729 11.7592 1.25439 11.3851 1.26342 11.0002C1.27244 10.6153 1.4127 10.249 1.65515 9.97722C1.8976 9.70543 2.22367 9.54894 2.56585 9.54015C2.90803 9.53136 3.24011 9.67094 3.49333 9.93L4.66667 11.25" stroke="var(--stroke-0, #2A2620)" stroke-width="1.16667" stroke-linecap="round" stroke-linejoin="round"/>
</g>
<defs>
<clipPath id="clip0_8_1812">
<rect width="16" height="18" fill="white"/>
</clipPath>
</defs>
</svg>
