<svg preserveAspectRatio="none" width="100%" height="100%" overflow="visible" style="display: block;" viewBox="0 0 13.3333 15.6667" fill="none" xmlns="http://www.w3.org/2000/svg">
<g id="Group">
<g id="Vector">
</g>
<path id="Vector_2" d="M2 5.33333V8.66667L0.666667 10.6667V12.6667H12.6667V10.6667L11.3333 8.66667V5.33333C11.3333 4.7205 11.2126 4.11366 10.9781 3.54748C10.7436 2.98129 10.3998 2.46684 9.9665 2.0335C9.53316 1.60016 9.01871 1.25642 8.45252 1.0219C7.88634 0.787374 7.2795 0.666667 6.66667 0.666667C6.05383 0.666667 5.447 0.787374 4.88081 1.0219C4.31462 1.25642 3.80018 1.60016 3.36684 2.0335C2.93349 2.46684 2.58975 2.98129 2.35523 3.54748C2.12071 4.11366 2 4.7205 2 5.33333ZM4.33333 12.6667H9C9 12.9731 8.93965 13.2765 8.82239 13.5596C8.70513 13.8427 8.53325 14.0999 8.31658 14.3166C8.09991 14.5333 7.84269 14.7051 7.55959 14.8224C7.2765 14.9396 6.97308 15 6.66667 15C6.36025 15 6.05683 14.9396 5.77374 14.8224C5.49065 14.7051 5.23342 14.5333 5.01675 14.3166C4.80008 14.0999 4.62821 13.8427 4.51095 13.5596C4.39369 13.2765 4.33333 12.9731 4.33333 12.6667Z" stroke="var(--stroke-0, #2A2620)" stroke-width="1.33333" stroke-linecap="square"/>
</g>
</svg>
