<svg preserveAspectRatio="none" width="100%" height="100%" overflow="visible" style="display: block;" viewBox="0 0 26.7579 26.7053" fill="none" xmlns="http://www.w3.org/2000/svg">
<g id="Group">
<path id="Vector" d="M19.9155 6.63665C19.6744 5.05553 18.8748 3.61312 17.6616 2.57091C16.4484 1.52869 14.9019 0.955638 13.3025 0.955638C11.7031 0.955638 10.1566 1.52869 8.94342 2.57091C7.73022 3.61312 6.93058 5.05553 6.68947 6.63665C5.16876 6.63665 3.71034 7.24075 2.63504 8.31605C1.55974 9.39135 0.955638 10.8498 0.955638 12.3705C0.955638 13.8912 1.55974 15.3496 2.63504 16.4249C3.71034 17.5002 5.16876 18.1043 6.68947 18.1043C7.40377 18.1114 8.11222 17.9749 8.77276 17.7029C9.30609 18.4224 10.0005 19.0069 10.8004 19.4096C11.6003 19.8123 12.4834 20.0221 13.3789 20.0221C14.2745 20.0221 15.1576 19.8123 15.9575 19.4096C16.7574 19.0069 17.4518 18.4224 17.9851 17.7029C18.6457 17.9749 19.3541 18.1114 20.0684 18.1043C21.5891 18.1043 23.0475 17.5002 24.1228 16.4249C25.1981 15.3496 25.8022 13.8912 25.8022 12.3705C25.8022 10.8498 25.1981 9.39135 24.1228 8.31605C23.0475 7.24075 21.5891 6.63665 20.0684 6.63665H19.9155Z" stroke="var(--stroke-0, #D5CAA1)" stroke-width="1.91128" stroke-linecap="round" stroke-linejoin="round"/>
<path id="Vector_2" d="M10.359 12.3707L13.2259 15.2376V25.7496" stroke="var(--stroke-0, #D5CAA1)" stroke-width="1.91128" stroke-linecap="round" stroke-linejoin="round"/>
<path id="Vector_3" d="M13.2261 15.2376L16.0931 12.3707" stroke="var(--stroke-0, #D5CAA1)" stroke-width="1.91128" stroke-linecap="round" stroke-linejoin="round"/>
</g>
</svg>
