<svg preserveAspectRatio="none" width="100%" height="100%" overflow="visible" style="display: block;" viewBox="0 0 20 20" fill="none" xmlns="http://www.w3.org/2000/svg">
<g id="material-symbols:privacy-tip-outline">
<path id="Vector" d="M9.16667 14.1667H10.8333V9.16667H9.16667V14.1667ZM10.5942 7.26083C10.7536 7.10083 10.8333 6.90278 10.8333 6.66667C10.8333 6.43056 10.7533 6.23278 10.5933 6.07333C10.4333 5.91389 10.2356 5.83389 10 5.83333C9.76444 5.83278 9.56667 5.91278 9.40667 6.07333C9.24667 6.23389 9.16667 6.43167 9.16667 6.66667C9.16667 6.90167 9.24667 7.09972 9.40667 7.26083C9.56667 7.42194 9.76444 7.50167 10 7.5C10.2356 7.49833 10.4336 7.41833 10.5942 7.26M10 18.3333C8.06944 17.8472 6.47556 16.7394 5.21833 15.01C3.96111 13.2806 3.33278 11.3606 3.33333 9.25V4.16667L10 1.66667L16.6667 4.16667V9.25C16.6667 11.3611 16.0383 13.2814 14.7817 15.0108C13.525 16.7403 11.9311 17.8478 10 18.3333ZM10 16.5833C11.4444 16.125 12.6389 15.2083 13.5833 13.8333C14.5278 12.4583 15 10.9306 15 9.25V5.3125L10 3.4375L5 5.3125V9.25C5 10.9306 5.47222 12.4583 6.41667 13.8333C7.36111 15.2083 8.55556 16.125 10 16.5833Z" fill="var(--fill-0, #2A2620)"/>
</g>
</svg>
