<svg preserveAspectRatio="none" width="100%" height="100%" overflow="visible" style="display: block;" viewBox="0 0 16.5 15" fill="none" xmlns="http://www.w3.org/2000/svg">
<g id="Group 27">
<path id="Vector" d="M11.25 14.25V12.75C11.25 11.9544 10.9339 11.1913 10.3713 10.6287C9.80871 10.0661 9.04565 9.75 8.25 9.75H3.75C2.95435 9.75 2.19129 10.0661 1.62868 10.6287C1.06607 11.1913 0.75 11.9544 0.75 12.75V14.25" stroke="var(--stroke-0, #2A2620)" stroke-width="1.5" stroke-linecap="round" stroke-linejoin="round"/>
<path id="Vector_2" d="M6 6.75C7.65685 6.75 9 5.40685 9 3.75C9 2.09315 7.65685 0.75 6 0.75C4.34315 0.75 3 2.09315 3 3.75C3 5.40685 4.34315 6.75 6 6.75Z" stroke="var(--stroke-0, #2A2620)" stroke-width="1.5" stroke-linecap="round" stroke-linejoin="round"/>
<path id="Vector_3" d="M15.75 14.25V12.75C15.7495 12.0853 15.5283 11.4396 15.121 10.9143C14.7138 10.3889 14.1436 10.0137 13.5 9.84753" stroke="var(--stroke-0, #2A2620)" stroke-width="1.5" stroke-linecap="round" stroke-linejoin="round"/>
<path id="Vector_4" d="M11.25 0.847534C11.8953 1.01276 12.4673 1.38806 12.8757 1.91427C13.2842 2.44047 13.5059 3.08766 13.5059 3.75378C13.5059 4.41991 13.2842 5.06709 12.8757 5.5933C12.4673 6.11951 11.8953 6.49481 11.25 6.66003" stroke="var(--stroke-0, #2A2620)" stroke-width="1.5" stroke-linecap="round" stroke-linejoin="round"/>
</g>
</svg>
