<svg preserveAspectRatio="none" width="100%" height="100%" overflow="visible" style="display: block;" viewBox="0 0 11.1545 10.0514" fill="none" xmlns="http://www.w3.org/2000/svg">
<path id="Icon" d="M5.57727 3.55137V5.55137M5.57727 7.55137H5.58213M4.74628 0.981372L0.630245 8.05137C0.545382 8.20258 0.500479 8.37402 0.500004 8.54863C0.499529 8.72324 0.543498 8.89494 0.627537 9.04663C0.711576 9.19833 0.832755 9.32475 0.979019 9.4133C1.12528 9.50185 1.29153 9.54945 1.46123 9.55137H9.69331C9.863 9.54945 10.0293 9.50185 10.1755 9.4133C10.3218 9.32475 10.443 9.19833 10.527 9.04663C10.611 8.89494 10.655 8.72324 10.6545 8.54863C10.6541 8.37402 10.6092 8.20258 10.5243 8.05137L6.40825 0.981372C6.32162 0.834425 6.19964 0.712932 6.05408 0.628614C5.90853 0.544296 5.74431 0.5 5.57727 0.5C5.41023 0.5 5.24601 0.544296 5.10045 0.628614C4.95489 0.712932 4.83292 0.834425 4.74628 0.981372Z" stroke="var(--stroke-0, #454545)" stroke-opacity="0.8" stroke-linecap="round" stroke-linejoin="round"/>
</svg>
