<svg preserveAspectRatio="none" width="100%" height="100%" overflow="visible" style="display: block;" viewBox="0 0 21.4158 21.4287" fill="none" xmlns="http://www.w3.org/2000/svg">
<g id="Group 22">
<g id="Group">
<path id="Vector" d="M0.714449 13.0173H3.79332C4.81403 13.0173 5.79293 13.4228 6.51468 14.1445C7.23644 14.8663 7.64191 15.8452 7.64191 16.8659" stroke="var(--stroke-0, #3A3525)" stroke-width="1.42857" stroke-linecap="round" stroke-linejoin="round"/>
<path id="Vector_2" d="M3.02344 16.8658H10.7206C11.5372 16.8658 12.3203 17.1902 12.8977 17.7676C13.4751 18.345 13.7995 19.1281 13.7995 19.9447C13.7995 20.1488 13.7184 20.3446 13.574 20.4889C13.4297 20.6333 13.2339 20.7144 13.0298 20.7144H0.714286" stroke="var(--stroke-0, #3A3525)" stroke-width="1.42857" stroke-linecap="round" stroke-linejoin="round"/>
</g>
<path id="Vector_3" d="M13.4142 13.0178L7.25646 7.32189C3.90048 3.95052 8.79589 -2.57669 13.4142 2.70358C18.0325 -2.56129 22.9741 3.96591 19.5719 7.32189L13.4142 13.0178Z" stroke="var(--stroke-0, #3A3525)" stroke-width="1.42857" stroke-linecap="round" stroke-linejoin="round"/>
</g>
</svg>
