<svg preserveAspectRatio="none" width="100%" height="100%" overflow="visible" style="display: block;" viewBox="0 0 16.8 16.8" fill="none" xmlns="http://www.w3.org/2000/svg">
<g id="Group 21">
<path id="Vector" d="M16.2633 3.47065C16.1977 3.38068 16.108 3.31158 16.0048 3.27155L8.62086 0.44675C8.55099 0.415915 8.47557 0.4 8.39934 0.4C8.3231 0.4 8.24769 0.415915 8.17782 0.44675L0.793845 3.32132C0.696291 3.34745 0.607194 3.39893 0.535406 3.47065C0.449442 3.57581 0.401669 3.70755 0.400033 3.84397V12.953C0.401629 13.0773 0.439994 13.1982 0.510184 13.3002C0.580374 13.4023 0.679171 13.4807 0.793845 13.5254L8.17782 16.4H8.39934H8.62086L16.0048 13.5254C16.1195 13.4807 16.2183 13.4023 16.2885 13.3002C16.3587 13.1982 16.397 13.0773 16.3986 12.953V3.89375C16.4091 3.74035 16.3606 3.58881 16.2633 3.47065V3.47065Z" stroke="var(--stroke-0, #3A3525)" stroke-width="0.8" stroke-linecap="round" stroke-linejoin="round"/>
<g id="Group">
<path id="Vector_2" d="M7.86878 16.2962V7.33359" stroke="var(--stroke-0, #3A3525)" stroke-width="0.8" stroke-linecap="round" stroke-linejoin="round"/>
<path id="Vector_3" d="M0.931287 3.6002L7.86462 6.8002L16.398 3.6002" stroke="var(--stroke-0, #3A3525)" stroke-width="0.8" stroke-linecap="round" stroke-linejoin="round"/>
</g>
</g>
</svg>
