<svg preserveAspectRatio="none" width="100%" height="100%" overflow="visible" style="display: block;" viewBox="0 0 15.7083 15.6771" fill="none" xmlns="http://www.w3.org/2000/svg">
<g id="Group">
<path id="Vector" d="M11.7352 3.85092C11.5921 2.91213 11.1173 2.0557 10.397 1.43688C9.67662 0.818067 8.7584 0.477819 7.80876 0.477819C6.85912 0.477819 5.9409 0.818067 5.22056 1.43688C4.50023 2.0557 4.02544 2.91213 3.88228 3.85092C2.97936 3.85092 2.11342 4.2096 1.47496 4.84806C0.836503 5.48652 0.477819 6.35246 0.477819 7.25538C0.477819 8.1583 0.836503 9.02424 1.47496 9.6627C2.11342 10.3012 2.97936 10.6598 3.88228 10.6598C4.3064 10.6641 4.72704 10.583 5.11924 10.4215C5.4359 10.8487 5.84822 11.1957 6.32315 11.4349C6.79808 11.674 7.32242 11.7985 7.85415 11.7985C8.38589 11.7985 8.91023 11.674 9.38516 11.4349C9.86009 11.1957 10.2724 10.8487 10.5891 10.4215C10.9813 10.583 11.4019 10.6641 11.826 10.6598C12.7289 10.6598 13.5949 10.3012 14.2333 9.6627C14.8718 9.02424 15.2305 8.1583 15.2305 7.25538C15.2305 6.35246 14.8718 5.48652 14.2333 4.84806C13.5949 4.2096 12.7289 3.85092 11.826 3.85092H11.7352Z" stroke="var(--stroke-0, #3A3525)" stroke-width="0.955638" stroke-linecap="round" stroke-linejoin="round"/>
<path id="Vector_2" d="M6.06115 7.25551L7.76338 8.95774V15.1993" stroke="var(--stroke-0, #3A3525)" stroke-width="0.955638" stroke-linecap="round" stroke-linejoin="round"/>
<path id="Vector_3" d="M7.76339 8.95774L9.46562 7.25551" stroke="var(--stroke-0, #3A3525)" stroke-width="0.955638" stroke-linecap="round" stroke-linejoin="round"/>
</g>
</svg>
